<?xml version="1.0" standalone="no"?>
<!DOCTYPE svg PUBLIC "-//W3C//DTD SVG 1.1//EN" "http://www.w3.org/Graphics/SVG/1.1/DTD/svg11.dtd">
<svg width="100%" height="100%" viewBox="0 0 400 400" version="1.1" xmlns="http://www.w3.org/2000/svg" xmlns:xlink="http://www.w3.org/1999/xlink" xml:space="preserve" style="fill-rule:evenodd;clip-rule:evenodd;stroke-linejoin:round;stroke-miterlimit:1.41421;">
    <g>
        <g id="Ellipse 1" transform="matrix(1.22752,0,0,1.22752,-1.25459,-24.2806)">
            <circle cx="222" cy="143" r="111" style="fill:rgb(131,207,204);"/>
        </g>
        <path id="Shape 1" d="M57.713,55.98L57.713,279.558C57.713,279.558 75.719,304.454 132.617,282.91C189.515,261.366 124.935,221.39 168.148,217.799C211.362,214.209 174.39,125.4 227.687,149.816C280.984,174.233 284.534,116.578 335.637,125.967C386.739,135.356 376.535,55.502 376.535,55.502L57.713,55.98Z" style="fill:rgb(243,129,149);"/>
        <path id="Shape 2" d="M192.535,238.147C191.675,206.197 173.351,180.082 148.914,196.015C140.268,201.652 135.57,212.542 127.005,218.342C119.125,223.679 109.295,224.366 100.094,224.332C81.462,224.262 65.916,217.724 60.323,243.41C56.513,260.9 72.403,270.379 67.028,287.218C65.351,292.479 60.136,296.369 55.854,299.652C45.215,307.804 37.294,314.811 29.419,326.396C14.672,348.075 13.625,358.175 18.781,371.826C24.373,386.626 45.279,400.519 62.628,393.577C83.441,385.253 82.834,377.88 105.991,368.682C125.534,360.915 130.121,367.173 137.449,380.797C151.272,406.498 178.126,405.517 196.413,383.212C202.37,375.945 212.534,360.067 210.522,349.667C208.897,341.274 197.949,336.21 192.645,330.525C173.988,310.53 205.328,303.346 221.765,296.001C237.473,288.983 262.798,274.548 254.433,248.509C251.562,239.574 231.548,231.578 223.482,234.692C212.073,239.102 192.865,250.505 192.535,238.147Z" style="fill:rgb(21,19,43);"/>
        <g id="BEST">
            <g id="BE ST" transform="matrix(1.59548,0,0,1.59562,100.86,95.3422)">
                <text x="0px" y="59.167px" style="font-family:Campton;font-size:83.333px;font-weight:700;fill:white;">B<tspan x="95.194px " y="59.167px ">E</tspan> </text>
                <text x="0px" y="146.667px" style="font-family:Campton;font-size:83.333px;font-weight:700;fill:white;">S<tspan x="92.027px " y="146.667px ">T</tspan></text>
            </g>
            <path id="Rectangle 2" d="M57.713,377.816L57.713,55.502L380,55.502L380,377.816L57.713,377.816ZM74.38,361.15L363.333,361.15L363.333,72.168L74.38,72.168L74.38,361.15Z" style="fill:white;"/>
        </g>
    </g>
</svg>
