<svg class="bestlogo3" viewBox="0 0 400 400" version="1.1" xmlns="http://www.w3.org/2000/svg" xmlns:xlink="http://www.w3.org/1999/xlink" xml:space="preserve" style="fill-rule:evenodd;clip-rule:evenodd;stroke-linejoin:round;stroke-miterlimit:1.41421;">
	<g transform="matrix(1,0,0,1,-18.8565,-16.7676)">
			<g id="text" transform="matrix(1.59548,0,0,1.59562,100.86,95.3422)">
					<g>
							<g transform="matrix(1,0,0,1,0,59.167)">
									<text x="0px" y="0px" style="font-family:Campton;font-size:83.333px;font-weight:700;fill:none;stroke-width:3px;stroke:rgb(23,16,44);">B</text>
							</g>
							<g transform="matrix(1,0,0,1,95.194,59.167)">
									<text x="0px" y="0px" style="font-family:Campton;font-size:83.333px;font-weight:700;fill:none;stroke-width:3px;stroke:rgb(23,16,44);">E</text>
							</g>
					</g>
					<g>
							<g transform="matrix(1,0,0,1,0,146.667)">
									<text x="0px" y="0px" style="font-family:Campton;font-size:83.333px;font-weight:700;fill:none;stroke-width:3px;stroke:rgb(23,16,44);">S</text>
							</g>
							<g transform="matrix(1,0,0,1,92.027,146.667)">
									<text x="0px" y="0px" style="font-family:Campton;font-size:83.333px;font-weight:700;fill:none;stroke-width:3px;stroke:rgb(23,16,44);">T</text>
							</g>
					</g>
			</g>
			<path id="border" d="M57.713,377.816L57.713,55.502L380,55.502L380,377.816L57.713,377.816ZM66.535,368.995L371.178,368.995L371.178,64.323L66.535,64.323L66.535,368.995Z" style="fill:none;stroke-width:4px;stroke:rgb(23,16,44);"/>
	</g>
</svg>
